# xmcd CD database file
# Copyright (C) 1995-1998 Ti Kan
#
# Track frame offsets:
#	150
#	16822
#	32927
#	49601
#	65306
#	82115
#	98457
#	118173
#	131187
#	141775
#	159744
#	175052
#	191239
#	206349
#	223455
#
# Disc length: 3126 seconds
#
# Revision: 1
# Processed by: cddbd v1.4PL0 Copyright (c) Steve Scherf et al.
# Submitted via: CDex 1.30Release
#
DISCID=dc0c340f
DTITLE=Brad Johner - Free
DYEAR=2003
DGENRE=Country
TTITLE0=Free
TTITLE1=Hello
TTITLE2=Different
TTITLE3=When Heaven Opens Up
TTITLE4=She Looks Alot Like You
TTITLE5=The Farmer's Back
TTITLE6=Until She Says Goodbye
TTITLE7=Subject to Change
TTITLE8=Who Wouldn't Love You
TTITLE9=Rocket Science
TTITLE10=Go Back
TTITLE11=Next To You
TTITLE12=Breathin' Air
TTITLE13=The Last Saskatchewan Pirate
TTITLE14=That's What Little Kids Do
EXTD=YEAR: 2003 ID3G:   2
EXTT0=
EXTT1=
EXTT2=
EXTT3=
EXTT4=
EXTT5=
EXTT6=
EXTT7=
EXTT8=
EXTT9=
EXTT10=
EXTT11=
EXTT12=
EXTT13=
EXTT14=
PLAYORDER=
